<svg width="85" height="85" viewBox="0 0 85 85" fill="none" xmlns="http://www.w3.org/2000/svg">
<circle cx="42.5" cy="42.5" r="42.5" fill="white"/>
<path d="M65.7197 47.7685V45.5231C67.7454 45.0973 69.2547 43.5077 69.2547 41.6171C69.2547 39.7176 67.7312 38.1218 65.6912 37.705C65.5563 35.5452 64.9386 33.4515 63.8495 31.4686C62.6634 29.3093 60.9714 27.3747 58.8206 25.7185C56.6895 24.0775 54.2122 22.7906 51.4578 21.8935C48.6186 20.9688 45.6049 20.5 42.5004 20.5C39.3958 20.5 36.3822 20.9688 33.543 21.8935C30.7885 22.7906 28.3113 24.0775 26.1801 25.7185C24.0293 27.3747 22.3374 29.3093 21.1512 31.4686C20.0621 33.4514 19.4443 35.5453 19.3094 37.705C17.2695 38.1219 15.7461 39.7176 15.7461 41.6171C15.7461 43.5301 17.2912 45.135 19.3531 45.5378V47.7538C17.2912 48.1567 15.7461 49.7615 15.7461 51.6745C15.7461 53.5876 17.2912 55.1924 19.3531 55.5952V59.0831C19.3531 59.8689 19.5786 60.6257 20.0234 61.3326C20.4285 61.9764 20.9978 62.5485 21.7154 63.0329C23.1166 63.979 24.9539 64.5 26.8888 64.5H58.184C60.1189 64.5 61.9562 63.979 63.3574 63.0329C64.075 62.5485 64.6443 61.9764 65.0494 61.3326C65.4942 60.6257 65.7197 59.8689 65.7197 59.0831V55.5806C67.7454 55.1548 69.2547 53.5652 69.2547 51.6745C69.2547 49.7839 67.7454 48.1943 65.7197 47.7685ZM21.3798 45.6354H63.693V47.6562H21.3798V45.6354ZM42.5004 22.5267C53.7374 22.5267 62.9599 29.1997 63.6514 37.5988H21.3493C22.0409 29.1997 31.2633 22.5267 42.5004 22.5267ZM17.7728 41.6171C17.7728 40.5375 18.9605 39.6255 20.3664 39.6255H64.6343C66.0402 39.6255 67.2279 40.5375 67.2279 41.6171C67.2279 42.6967 66.0402 43.6087 64.6343 43.6087H20.3664C18.9605 43.6087 17.7728 42.6967 17.7728 41.6171ZM62.2234 61.3532C61.1691 62.065 59.6968 62.4733 58.184 62.4733H26.8888C25.376 62.4733 23.9037 62.065 22.8494 61.3532C21.9017 60.7134 21.3798 59.9072 21.3798 59.0831V55.6929H25.7771L27.4444 59.2108C27.617 59.575 27.9801 59.7904 28.3605 59.7904C28.4909 59.7904 28.6233 59.7651 28.7507 59.7118L38.372 55.6929H50.5541C50.5607 55.7977 50.5694 55.9068 50.5808 56.0188C50.6954 57.143 51.0183 57.9987 51.5408 58.562C51.9988 59.0561 52.6001 59.3171 53.2796 59.3171C53.9737 59.3171 54.5896 59.0522 55.0608 58.551C55.7848 57.7808 56.0208 56.5722 56.0913 55.6929H58.0616C58.0939 56.117 58.1495 56.6312 58.2455 57.1492C58.3883 57.9206 58.5946 58.5527 58.8586 59.0279C59.4558 60.1027 60.2831 60.2631 60.7231 60.2631C61.2936 60.2631 61.809 60.0353 62.2136 59.6042C62.7949 58.9847 63.135 57.9624 63.2533 56.4787C63.2755 56.2002 63.2873 55.9334 63.2928 55.6929H63.693V59.0831C63.693 59.9071 63.1711 60.7134 62.2234 61.3532ZM28.0199 55.6929H33.1139L28.8617 57.4691L28.0199 55.6929ZM64.6343 53.6661H62.2666C61.9867 53.6661 61.7192 53.7819 61.5277 53.986C61.3361 54.1901 61.2375 54.4644 61.2552 54.7437C61.2558 54.7521 61.3071 55.5869 61.2163 56.5053C61.1069 57.6114 60.8617 58.0817 60.744 58.2107C60.6401 58.0898 60.368 57.6709 60.1862 56.4694C60.0464 55.5456 60.0436 54.6874 60.0436 54.6795C60.0436 54.1198 59.5899 53.6661 59.0303 53.6661H55.0969C54.8173 53.6661 54.5501 53.7817 54.3586 53.9854C54.1671 54.1891 54.0682 54.4629 54.0855 54.742C54.1297 55.4562 54.0009 56.7195 53.5841 57.1628C53.4967 57.2559 53.4142 57.2904 53.2796 57.2904C53.1647 57.2904 53.1011 57.2638 53.0276 57.1848C52.6288 56.7563 52.5204 55.481 52.5725 54.7559C52.5938 54.4746 52.4969 54.1973 52.3051 53.9905C52.1134 53.7837 51.8441 53.6661 51.5621 53.6661H38.1812C38.1745 53.666 38.1677 53.6661 38.161 53.6661H26.4295C26.4246 53.6661 26.4196 53.6661 26.4146 53.6661H20.3664C18.9605 53.6661 17.7728 52.7541 17.7728 51.6745C17.7728 50.595 18.9605 49.6829 20.3664 49.6829H64.6343C66.0402 49.6829 67.2279 50.595 67.2279 51.6745C67.2279 52.7541 66.0402 53.6661 64.6343 53.6661Z" fill="#2A872C"/>
<path d="M26.2504 34.9003C25.0556 33.4471 23.5815 32.8837 22.9581 33.6419C22.3347 34.4 22.7979 36.1926 23.9928 37.6457C25.1876 39.0989 26.6616 39.6623 27.2851 38.9041C27.9085 38.146 27.4453 36.3534 26.2504 34.9003Z" fill="#2A872C"/>
<path d="M30.1636 26.8206C28.9687 28.2737 28.5054 30.0662 29.1289 30.8244C29.7523 31.5826 31.2262 31.0192 32.4211 29.5662C33.6161 28.1131 34.0793 26.3206 33.4559 25.5623C32.8323 24.8041 31.3583 25.3675 30.1636 26.8206Z" fill="#2A872C"/>
<path d="M45.0812 26.3163C44.4577 25.5582 42.9837 26.1215 41.7888 27.5746C40.5939 29.0277 40.1306 30.8202 40.754 31.5784C41.3774 32.3366 42.8515 31.7732 44.0464 30.3201C45.2413 28.8671 45.7046 27.0745 45.0812 26.3163Z" fill="#2A872C"/>
<path d="M55.9951 26.3178C55.3717 25.5596 53.8976 26.1229 52.7027 27.576C51.5079 29.0291 51.0446 30.8216 51.668 31.5798C52.2915 32.338 53.7655 31.7747 54.9604 30.3216C56.1553 28.8686 56.6185 27.076 55.9951 26.3178Z" fill="#2A872C"/>
<path d="M48.9264 34.9006C47.7315 33.4474 46.2574 32.8841 45.634 33.6423C45.0105 34.4005 45.4737 36.1931 46.6685 37.6462C47.8634 39.0993 49.3375 39.6627 49.9609 38.9045C50.5844 38.1463 50.1212 36.3537 48.9264 34.9006Z" fill="#2A872C"/>
<path d="M63.0084 35.3815C61.8135 33.9284 60.3395 33.365 59.716 34.1232C59.0925 34.8814 59.5557 36.674 60.7506 38.1272C61.9454 39.5803 63.4195 40.1437 64.043 39.3855C64.6665 38.6273 64.2032 36.8347 63.0084 35.3815Z" fill="#2A872C"/>
<path d="M37.3051 34.9003C36.1102 33.4471 34.6362 32.8837 34.0128 33.6419C33.3893 34.4 33.8526 36.1926 35.0474 37.6457C36.2423 39.0989 37.7163 39.6623 38.3398 38.9041C38.9632 38.146 38.5 36.3534 37.3051 34.9003Z" fill="#2A872C"/>
</svg>
