<svg width="37" height="37" viewBox="0 0 37 37" fill="none" xmlns="http://www.w3.org/2000/svg">
<path d="M27.9425 21.9979C25.3708 21.9979 23.2786 24.0901 23.2786 26.6618C23.2786 29.2335 25.3708 31.3257 27.9425 31.3257C30.5146 31.3257 32.6064 29.2335 32.6064 26.6618C32.6064 24.0901 30.5142 21.9979 27.9425 21.9979ZM27.9425 28.9937C26.6564 28.9937 25.6105 27.9478 25.6105 26.6618C25.6105 25.3758 26.6564 24.3299 27.9425 24.3299C29.2285 24.3299 30.2744 25.3758 30.2744 26.6618C30.2744 27.9479 29.2285 28.9937 27.9425 28.9937ZM12.0076 21.9979C9.43591 21.9979 7.34375 24.0901 7.34375 26.6618C7.34375 29.2335 9.43591 31.3257 12.0076 31.3257C14.5793 31.3257 16.6715 29.2335 16.6715 26.6618C16.6715 24.0901 14.5793 21.9979 12.0076 21.9979ZM12.0076 28.9937C10.7216 28.9937 9.67569 27.9478 9.67569 26.6618C9.67569 25.3758 10.7216 24.3299 12.0076 24.3299C13.2933 24.3299 14.3396 25.3758 14.3396 26.6618C14.3396 27.9479 13.2937 28.9937 12.0076 28.9937ZM31.0832 8.64843C30.9861 8.45539 30.8372 8.29314 30.6532 8.17976C30.4692 8.06639 30.2573 8.00635 30.0412 8.00635H23.9005V10.3383H29.3222L32.4971 16.6531L34.5811 15.6053L31.0832 8.64843Z" fill="white"/>
<path d="M15.624 25.5346H24.4464V27.8666H15.624V25.5346ZM8.51152 25.5346H4.46956C3.82553 25.5346 3.30362 26.0566 3.30362 26.7006C3.30362 27.3446 3.8256 27.8665 4.46956 27.8665H8.51159C9.15562 27.8665 9.67752 27.3445 9.67752 26.7006C9.67752 26.0565 9.15555 25.5346 8.51152 25.5346ZM36.7552 18.4067L34.4617 15.4529C34.3529 15.3124 34.2133 15.1988 34.0537 15.1206C33.8941 15.0425 33.7187 15.0019 33.541 15.002H25.0683V6.84025C25.0683 6.19622 24.5463 5.67432 23.9024 5.67432H4.46956C3.82553 5.67432 3.30362 6.19629 3.30362 6.84025C3.30362 7.48421 3.8256 8.00618 4.46956 8.00618H22.7364V16.1679C22.7364 16.812 23.2583 17.3339 23.9023 17.3339H32.97L34.6681 19.5212V25.5345H31.4422C30.7982 25.5345 30.2763 26.0565 30.2763 26.7004C30.2763 27.3445 30.7982 27.8664 31.4422 27.8664H35.834C36.478 27.8664 36.9999 27.3444 37 26.7004V19.1218C37 18.8629 36.9137 18.6111 36.7552 18.4067ZM8.43383 19.6271H3.07035C2.42632 19.6271 1.90442 20.149 1.90442 20.793C1.90442 21.437 2.42639 21.9589 3.07035 21.9589H8.43376C9.07779 21.9589 9.59969 21.437 9.59969 20.793C9.59977 20.149 9.07779 19.6271 8.43383 19.6271ZM11.1155 15.0409H1.16593C0.521975 15.0409 0 15.5629 0 16.2069C0 16.8509 0.521975 17.3728 1.16593 17.3728H11.1155C11.7596 17.3728 12.2815 16.8508 12.2815 16.2069C12.2815 15.5629 11.7596 15.0409 11.1155 15.0409Z" fill="white"/>
<path d="M13.0218 10.4546H3.07218C2.42815 10.4546 1.90625 10.9766 1.90625 11.6205C1.90625 12.2646 2.42822 12.7865 3.07218 12.7865H13.0218C13.6658 12.7865 14.1877 12.2645 14.1877 11.6205C14.1878 10.9766 13.6658 10.4546 13.0218 10.4546Z" fill="white"/>
</svg>
