<svg width="448" height="447" viewBox="0 0 448 447" fill="none" xmlns="http://www.w3.org/2000/svg">
<path d="M417.79 282.65H271.381V197.901H417.79V282.65ZM272.274 281.756H416.896V198.795H272.274V281.756Z" fill="#E0E0E0"/>
<path d="M387.581 243.094H290.967V245.927H387.581V243.094Z" fill="#F0F0F0"/>
<path d="M394.238 253.656H290.967V256.747H394.238V253.656Z" fill="#F0F0F0"/>
<path d="M394.238 264.342H290.967V267.433H394.238V264.342Z" fill="#F0F0F0"/>
<path d="M324.732 227.753H290.967V235.107H324.732V227.753Z" fill="#F0F0F0"/>
<path d="M417.344 198.357H271.828V211.849H417.344V198.357Z" fill="#E0E0E0"/>
<path d="M406.148 209.829C405.96 209.651 407.836 207.39 410.338 204.781C412.84 202.172 415.011 200.198 415.199 200.376C415.386 200.555 413.51 202.815 411.008 205.425C408.507 208.034 406.335 210.008 406.148 209.829Z" fill="white"/>
<path d="M415.189 209.829C415.001 210.008 412.83 208.034 410.328 205.425C407.827 202.815 405.95 200.555 406.138 200.376C406.326 200.198 408.497 202.172 410.999 204.781C413.5 207.39 415.377 209.651 415.189 209.829Z" fill="white"/>
<path d="M237.597 30.5487H92.082V114.404H237.597V30.5487Z" fill="#E6E6E6"/>
<path d="M207.845 75.2863H111.23V78.1186H207.845V75.2863Z" fill="#F0F0F0"/>
<path d="M214.501 85.8563H111.23V88.9478H214.501V85.8563Z" fill="#F0F0F0"/>
<path d="M214.501 96.5426H111.23V99.6341H214.501V96.5426Z" fill="#F0F0F0"/>
<path d="M144.996 59.9537H111.23V67.3072H144.996V59.9537Z" fill="#F0F0F0"/>
<path d="M237.597 30.5487H92.082V44.0406H237.597V30.5487Z" fill="#E0E0E0"/>
<path d="M225.911 41.9587C225.724 41.78 227.6 39.5195 230.102 36.9104C232.604 34.3014 234.775 32.3268 234.963 32.5055C235.15 32.6842 233.274 34.9447 230.772 37.5538C228.27 40.1628 226.09 42.1374 225.911 41.9587Z" fill="white"/>
<path d="M234.953 41.9587C234.765 42.1374 232.594 40.1628 230.092 37.5538C227.59 34.9447 225.714 32.6842 225.902 32.5055C226.089 32.3268 228.26 34.3014 230.762 36.9104C233.264 39.5195 235.14 41.789 234.953 41.9587Z" fill="white"/>
<path d="M182.487 186.321H36.0781V101.573H182.487V186.321ZM36.9716 185.428H181.594V102.466H36.9716V185.428Z" fill="#E0E0E0"/>
<path d="M152.286 146.766H55.6719V149.599H152.286V146.766Z" fill="#F0F0F0"/>
<path d="M158.943 157.327H55.6719V160.419H158.943V157.327Z" fill="#F0F0F0"/>
<path d="M158.943 168.014H55.6719V171.105H158.943V168.014Z" fill="#F0F0F0"/>
<path d="M89.4372 131.425H55.6719V138.778H89.4372V131.425Z" fill="#F0F0F0"/>
<path d="M182.041 102.02H36.5254V115.512H182.041V102.02Z" fill="#E0E0E0"/>
<path d="M351.457 205.737H179.637V359.562H351.457V205.737Z" fill="#E6E6E6"/>
<path d="M188.277 157.283H53.6797V297.124H188.277V157.283Z" fill="#F0F0F0"/>
<path d="M188.277 157.283H53.6797V172.517H188.277V157.283Z" fill="#E0E0E0"/>
<path d="M64.7954 164.744C64.7954 166.379 63.5266 167.701 61.9719 167.701C60.4083 167.701 59.1484 166.379 59.1484 164.744C59.1484 163.108 60.4172 161.786 61.9719 161.786C63.5266 161.795 64.7954 163.117 64.7954 164.744Z" fill="white"/>
<path d="M76.2582 164.744C76.2582 166.379 74.9895 167.701 73.4348 167.701C71.8712 167.701 70.6113 166.379 70.6113 164.744C70.6113 163.108 71.8801 161.786 73.4348 161.786C74.9895 161.795 76.2582 163.117 76.2582 164.744Z" fill="white"/>
<path d="M87.7211 164.744C87.7211 166.379 86.4524 167.701 84.8977 167.701C83.3341 167.701 82.0742 166.379 82.0742 164.744C82.0742 163.108 83.343 161.786 84.8977 161.786C86.4524 161.795 87.7211 163.117 87.7211 164.744Z" fill="white"/>
<path d="M398.572 61.1332H226.752V232.381H398.572V61.1332Z" fill="#F0F0F0"/>
<path d="M398.572 61.1332H226.752V81.1923H398.572V61.1332Z" fill="#E0E0E0"/>
<path d="M241.387 70.9617C241.387 73.1061 239.725 74.8484 237.67 74.8484C235.615 74.8484 233.953 73.1061 233.953 70.9617C233.953 68.8173 235.615 67.075 237.67 67.075C239.716 67.075 241.387 68.8173 241.387 70.9617Z" fill="white"/>
<path d="M255.389 68.3348C256.908 69.8537 256.961 72.2662 255.505 73.7137C254.048 75.1701 251.645 75.1164 250.126 73.5975C248.607 72.0785 248.553 69.6661 250.01 68.2186C251.457 66.7622 253.87 66.8158 255.389 68.3348Z" fill="white"/>
<path d="M271.571 70.9617C271.571 73.1061 269.909 74.8484 267.854 74.8484C265.799 74.8484 264.137 73.1061 264.137 70.9617C264.137 68.8173 265.799 67.075 267.854 67.075C269.9 67.075 271.571 68.8173 271.571 70.9617Z" fill="white"/>
<path d="M361.455 404.997C361.455 405.122 299.411 405.229 222.891 405.229C146.345 405.229 84.3184 405.122 84.3184 404.997C84.3184 404.872 146.345 404.764 222.891 404.764C299.411 404.764 361.455 404.872 361.455 404.997Z" fill="#252C32"/>
<path d="M301.002 295.614C287.197 285.973 284.07 268.068 284.615 251.985C284.704 249.295 284.409 246.472 285.687 244.113C286.965 241.754 289.949 240.146 292.352 241.281C294.345 242.219 295.221 244.542 296.329 246.454C297.812 249.009 300.028 251.118 302.628 252.467C304.334 253.352 306.452 253.897 308.141 252.968C310.455 251.69 310.732 248.491 310.714 245.82C310.678 240.843 310.651 235.866 310.625 230.88C310.607 228.209 310.598 225.484 311.429 222.946C312.26 220.408 314.091 218.059 316.638 217.344C319.175 216.629 322.32 218.094 322.857 220.712C323.08 221.802 322.857 222.928 322.928 224.036C322.999 225.144 323.518 226.368 324.572 226.681C325.635 226.994 326.708 226.234 327.503 225.457C330.264 222.758 332.131 219.283 333.882 215.834C335.634 212.385 337.331 208.838 339.833 205.898C342.335 202.958 345.793 200.626 349.617 200.412C353.441 200.197 357.515 202.556 358.489 206.309C359.454 210.071 357.265 213.895 354.871 216.942C351.323 221.463 347.124 225.466 342.46 228.772C341.62 229.37 340.709 230.014 340.387 231.005C339.806 232.783 341.495 234.553 343.255 235.142C345.248 235.803 347.41 235.598 349.492 235.848C351.574 236.089 353.834 237.01 354.62 238.984C355.711 241.718 353.432 244.578 351.18 246.454C346.677 250.207 341.54 253.173 336.062 255.183C334.097 255.898 332.033 256.533 330.442 257.918C328.861 259.303 327.905 261.697 328.861 263.582C329.817 265.468 332.274 266.066 334.338 265.682C336.393 265.298 338.243 264.181 340.199 263.439C343.872 262.055 348.607 262.305 350.966 265.477C352.512 267.558 352.646 270.462 351.868 272.955C351.091 275.439 349.501 277.584 347.821 279.558C341.942 286.465 334.409 292.022 325.885 294.971C317.353 297.911 309.463 298.715 301.002 295.614Z" fill="#2A872C"/>
<path d="M354.629 202.646C354.638 202.655 354.548 202.735 354.37 202.896C354.173 203.075 353.914 203.307 353.574 203.602C352.877 204.218 351.841 205.13 350.545 206.345C347.945 208.757 344.3 212.394 340.342 217.362C338.358 219.837 336.285 222.642 334.123 225.689C331.97 228.745 329.682 232.024 327.404 235.562C325.134 239.1 322.856 242.889 320.81 246.981C319.782 249.027 318.862 251.163 317.924 253.343C316.994 255.523 316.047 257.73 315.091 259.964C311.294 268.925 307.961 277.583 305.576 285.67C303.172 293.756 301.751 301.243 301.126 307.587C300.483 313.94 300.617 319.122 300.876 322.678C301.019 324.457 301.153 325.841 301.278 326.771C301.331 327.217 301.367 327.566 301.403 327.834C301.43 328.075 301.439 328.2 301.43 328.2C301.421 328.2 301.394 328.084 301.358 327.843C301.314 327.584 301.26 327.235 301.188 326.789C301.028 325.859 300.867 324.483 300.697 322.696C300.375 319.14 300.197 313.94 300.795 307.56C301.376 301.19 302.779 293.658 305.156 285.545C307.523 277.423 310.856 268.738 314.653 259.776C315.61 257.542 316.557 255.326 317.495 253.146C318.433 250.975 319.362 248.822 320.399 246.767C322.454 242.657 324.75 238.859 327.037 235.321C329.325 231.783 331.63 228.504 333.801 225.457C335.981 222.41 338.072 219.613 340.083 217.147C344.085 212.188 347.784 208.587 350.429 206.211C351.743 205.022 352.797 204.129 353.521 203.539C353.869 203.253 354.137 203.039 354.343 202.869C354.53 202.708 354.629 202.637 354.629 202.646Z" fill="#252C32"/>
<path d="M320.533 246.731C320.498 246.74 320.408 246.329 320.274 245.587C320.131 244.846 319.97 243.774 319.783 242.442C319.407 239.78 319.005 236.089 318.585 232.024C318.165 227.95 317.719 224.277 317.299 221.633C317.093 220.31 316.915 219.238 316.79 218.505C316.664 217.764 316.611 217.353 316.638 217.344C316.673 217.335 316.79 217.737 316.977 218.461C317.165 219.184 317.397 220.248 317.647 221.57C318.157 224.215 318.657 227.896 319.077 231.97C319.479 235.991 319.845 239.628 320.131 242.398C320.265 243.648 320.381 244.712 320.471 245.561C320.542 246.311 320.569 246.731 320.533 246.731Z" fill="#252C32"/>
<path d="M354.88 240.316C354.88 240.351 354.389 240.405 353.513 240.476C352.629 240.557 351.36 240.664 349.787 240.843C346.642 241.182 342.309 241.808 337.564 242.701C332.82 243.604 328.558 244.604 325.502 245.417C323.965 245.811 322.732 246.168 321.883 246.409C321.035 246.651 320.552 246.767 320.543 246.74C320.534 246.704 320.99 246.525 321.83 246.222C322.67 245.927 323.885 245.516 325.413 245.078C328.46 244.175 332.722 243.121 337.484 242.21C342.246 241.316 346.598 240.744 349.761 240.494C351.342 240.36 352.629 240.307 353.513 240.28C354.389 240.271 354.88 240.28 354.88 240.316Z" fill="#252C32"/>
<path d="M305.577 284.901C305.559 284.91 305.478 284.767 305.344 284.481C305.184 284.142 304.996 283.74 304.755 283.239C304.245 282.158 303.557 280.577 302.735 278.611C301.082 274.68 298.965 269.167 296.704 263.064C294.444 256.953 292.389 251.431 290.816 247.473C290.048 245.543 289.413 243.961 288.94 242.782C288.734 242.272 288.573 241.852 288.439 241.504C288.332 241.209 288.278 241.048 288.296 241.048C288.314 241.039 288.395 241.182 288.529 241.468C288.69 241.808 288.877 242.21 289.118 242.71C289.628 243.791 290.316 245.373 291.138 247.339C292.791 251.27 294.908 256.783 297.169 262.894C299.42 269.006 301.484 274.519 303.057 278.486C303.825 280.416 304.46 281.997 304.933 283.177C305.139 283.686 305.3 284.115 305.434 284.455C305.541 284.732 305.595 284.892 305.577 284.901Z" fill="#252C32"/>
<path d="M351.217 270.185C351.217 270.203 351.065 270.266 350.761 270.373C350.404 270.489 349.966 270.641 349.439 270.82C348.215 271.213 346.562 271.749 344.551 272.401C340.424 273.741 334.75 275.654 328.477 277.78C322.205 279.907 316.505 281.765 312.35 283.025C310.268 283.65 308.588 284.142 307.418 284.455C306.873 284.598 306.426 284.714 306.068 284.812C305.756 284.883 305.595 284.919 305.586 284.901C305.586 284.883 305.738 284.821 306.042 284.714C306.399 284.598 306.837 284.446 307.364 284.267C308.588 283.874 310.241 283.338 312.251 282.685C316.379 281.345 322.053 279.433 328.326 277.307C334.598 275.18 340.298 273.322 344.453 272.071C346.535 271.445 348.215 270.954 349.385 270.641C349.93 270.498 350.377 270.382 350.734 270.284C351.047 270.203 351.208 270.176 351.217 270.185Z" fill="#252C32"/>
<path d="M332.596 53.4491L327.994 55.0931L326.028 49.0798C322.401 37.9915 310.812 32.0587 300.206 35.8471C289.601 39.6445 283.927 51.7514 287.563 62.8397L289.529 68.853L284.91 70.506C281.318 71.7926 279.37 75.9295 280.603 79.6912L293.416 118.818C294.667 122.633 298.634 124.67 302.226 123.383L349.912 106.326C353.557 105.022 355.505 100.867 354.254 97.0519L341.441 57.9255C340.217 54.1639 336.25 52.1446 332.596 53.4491ZM296.248 59.7304C294.256 53.6546 297.365 47.0159 303.182 44.934C308.989 42.8522 315.342 46.1134 317.326 52.1892L319.292 58.2025L298.214 65.7436L296.248 59.7304ZM323.062 94.4518L326.332 104.441C326.466 104.861 326.225 105.299 325.823 105.442L321.248 107.077C320.9 107.202 320.453 107.014 320.31 106.594L317.04 96.6051C313.493 96.4532 310.205 94.1033 308.972 90.3506C307.39 85.5168 309.865 80.2362 314.502 78.5743C319.14 76.9124 324.188 79.5035 325.769 84.3374C327.002 88.099 325.778 92.0572 323.062 94.4518Z" fill="#2A872C"/>
<path d="M327.789 54.9859C327.833 55.111 319.256 58.3187 308.632 62.1607C298.008 66.0028 289.359 69.0139 289.315 68.8977C289.27 68.7726 297.848 65.565 308.471 61.7229C319.104 57.8809 327.744 54.8698 327.789 54.9859Z" fill="#252C32"/>
<path d="M337.922 56.6299C337.931 56.6299 337.967 56.7103 338.029 56.8622C338.101 57.0409 338.181 57.2732 338.288 57.5591C338.521 58.2114 338.833 59.1138 339.244 60.2664C340.066 62.661 341.237 66.0652 342.675 70.2558C344.114 74.4909 345.811 79.5124 347.706 85.0879C348.635 87.8845 349.662 90.7973 350.636 93.871C351.092 95.4167 351.467 97.0608 351.307 98.7763C351.226 99.6251 350.994 100.474 350.583 101.251C350.163 102.02 349.573 102.69 348.894 103.244C347.518 104.343 345.91 104.986 344.355 105.558C342.791 106.121 341.255 106.666 339.745 107.211C336.725 108.292 333.812 109.337 331.033 110.329C325.484 112.304 320.49 114.082 316.281 115.583C312.1 117.057 308.704 118.246 306.319 119.086C305.166 119.479 304.255 119.791 303.603 120.015C303.308 120.113 303.075 120.185 302.897 120.247C302.736 120.301 302.655 120.319 302.646 120.31C302.646 120.301 302.718 120.265 302.879 120.202C303.058 120.131 303.29 120.042 303.576 119.925C304.219 119.684 305.121 119.345 306.265 118.916C308.642 118.04 312.019 116.798 316.174 115.27C320.374 113.742 325.359 111.938 330.899 109.927C333.669 108.926 336.582 107.872 339.602 106.782C341.112 106.237 342.648 105.683 344.203 105.12C345.74 104.548 347.313 103.914 348.608 102.877C349.251 102.359 349.796 101.734 350.181 101.028C350.565 100.313 350.779 99.5268 350.851 98.7316C351.003 97.1233 350.645 95.5239 350.208 94.005C349.243 90.9671 348.224 88.0275 347.304 85.2308C345.445 79.6464 343.774 74.6071 342.372 70.363C340.996 66.1546 339.87 62.7325 339.083 60.329C338.717 59.1674 338.422 58.2471 338.208 57.5949C338.118 57.3 338.047 57.0677 337.993 56.8801C337.931 56.7192 337.913 56.6388 337.922 56.6299Z" fill="#252C32"/>
<path d="M312.76 44.3086C312.733 44.3444 312.287 44.0674 311.411 43.7189C310.527 43.3794 309.195 42.9862 307.506 42.9326C305.827 42.8701 303.79 43.1292 301.752 44.0227C299.724 44.8983 297.723 46.4619 296.293 48.5885C294.837 50.7061 294.193 53.1543 294.193 55.3701C294.175 57.6039 294.649 59.5875 295.105 61.2136C295.578 62.8487 296.061 64.1354 296.373 65.0378C296.695 65.9402 296.865 66.4317 296.838 66.4495C296.811 66.4585 296.579 65.9849 296.204 65.1004C295.837 64.2158 295.301 62.9381 294.792 61.303C294.292 59.6679 293.773 57.6575 293.764 55.3612C293.738 53.0738 294.399 50.5095 295.909 48.3204C297.392 46.1224 299.474 44.5141 301.583 43.6206C303.7 42.7182 305.809 42.4948 307.524 42.602C309.258 42.7003 310.607 43.156 311.483 43.5491C311.911 43.7636 312.242 43.9333 312.456 44.0763C312.662 44.2193 312.769 44.2997 312.76 44.3086Z" fill="#252C32"/>
<path d="M313.171 79.2712C313.162 79.2622 313.323 79.1818 313.627 79.0478C313.93 78.9048 314.386 78.7261 315.003 78.5474C315.61 78.3598 316.397 78.2168 317.326 78.1632C318.246 78.1185 319.336 78.2168 320.462 78.6278C322.74 79.432 324.849 81.764 325.885 84.8555C326.386 86.4192 326.43 88.233 325.93 89.9842C325.394 91.7266 324.42 93.4063 323.008 94.8181L323.071 94.5768C324.259 97.8292 325.546 101.376 326.895 105.067L326.976 105.29L326.752 105.361C326.109 105.576 325.412 105.808 324.706 106.049C323.205 106.55 321.713 107.05 320.256 107.542L320.033 107.613L319.962 107.39C318.737 103.682 317.397 100.197 316.423 96.8552L316.62 97.0071C314.788 96.882 313.144 96.1136 311.84 95.1129C310.526 94.1033 309.517 92.8524 308.837 91.53C308.167 90.2076 307.837 88.8048 307.89 87.5092C307.926 86.2137 308.221 85.0432 308.641 84.0603C309.472 82.0678 310.714 80.8169 311.634 80.1289C312.563 79.4499 313.171 79.2712 313.171 79.2712C313.189 79.3069 312.608 79.5392 311.706 80.2451C310.83 80.9509 309.642 82.2018 308.864 84.1586C308.087 86.0707 307.747 88.8137 309.141 91.3781C309.811 92.6469 310.794 93.8441 312.063 94.8091C313.332 95.7652 314.904 96.48 316.629 96.5872L316.781 96.5961L316.825 96.7391C317.808 100.054 319.157 103.53 320.39 107.256L320.096 107.113C321.552 106.621 323.035 106.13 324.536 105.62C325.233 105.388 325.93 105.156 326.582 104.932L326.439 105.227C325.099 101.537 323.821 97.99 322.642 94.7287L322.597 94.5947L322.705 94.4875C324.045 93.1651 325.019 91.53 325.528 89.8681C326.019 88.1883 325.984 86.4638 325.528 84.9628C324.554 81.9606 322.544 79.6822 320.364 78.878C319.291 78.4581 318.237 78.3419 317.335 78.3687C316.432 78.4045 315.655 78.5117 315.047 78.6815C313.805 79.012 313.18 79.3158 313.171 79.2712Z" fill="#252C32"/>
<path d="M285.553 337.26L196.31 336.849C185.579 336.805 176.913 328.057 176.957 317.326L177.904 93.594C177.949 82.8541 186.696 74.1872 197.436 74.2319L286.679 74.6429C297.41 74.6965 306.077 83.4349 306.032 94.1658L305.085 317.898C305.04 328.638 296.293 337.305 285.553 337.26Z" fill="#455A64"/>
<path d="M286.555 82.3627L269.248 82.2823C266.924 82.2734 265.039 84.2301 265.03 86.6515L265.012 89.7877C265.003 92.2091 263.109 94.1748 260.795 94.1569L227.065 94.005C224.742 93.9961 222.875 92.0215 222.884 89.5911L222.902 86.455C222.911 84.0336 221.043 82.05 218.72 82.0411L212.635 82.0143L197.491 81.9428C189.967 81.907 183.847 87.9828 183.811 95.4972L182.891 313.878C182.855 321.392 188.922 327.512 196.445 327.548L285.509 327.959C293.033 327.995 299.153 321.928 299.189 314.405L300.109 96.0243C300.136 88.5189 294.069 82.3985 286.555 82.3627Z" fill="white"/>
<path d="M274.563 298.84L208.337 298.536C207.649 298.536 207.095 297.786 207.104 296.865L207.175 279.54C207.175 278.62 207.738 277.878 208.426 277.887L274.652 278.191C275.34 278.191 275.894 278.942 275.885 279.862L275.814 297.187C275.814 298.107 275.251 298.849 274.563 298.84Z" fill="#2A872C"/>
<path d="M230.27 286.64C230.236 286.348 230.097 286.12 229.852 285.958C229.607 285.795 229.305 285.713 228.948 285.711C228.686 285.71 228.458 285.751 228.261 285.835C228.067 285.919 227.915 286.034 227.804 286.182C227.696 286.329 227.642 286.497 227.641 286.685C227.64 286.843 227.677 286.979 227.752 287.092C227.828 287.204 227.926 287.298 228.044 287.373C228.163 287.447 228.288 287.508 228.418 287.557C228.549 287.603 228.669 287.641 228.778 287.671L229.377 287.835C229.531 287.876 229.701 287.932 229.889 288.004C230.079 288.076 230.26 288.174 230.433 288.298C230.607 288.42 230.751 288.576 230.863 288.767C230.976 288.958 231.032 289.191 231.03 289.468C231.029 289.787 230.944 290.075 230.776 290.332C230.61 290.588 230.367 290.792 230.047 290.942C229.729 291.093 229.344 291.167 228.89 291.165C228.467 291.163 228.102 291.093 227.793 290.955C227.486 290.817 227.245 290.626 227.069 290.381C226.895 290.136 226.797 289.852 226.776 289.529L227.513 289.533C227.532 289.756 227.606 289.94 227.736 290.087C227.868 290.232 228.035 290.34 228.236 290.412C228.44 290.482 228.658 290.518 228.893 290.519C229.166 290.52 229.411 290.477 229.628 290.39C229.846 290.301 230.019 290.176 230.146 290.018C230.274 289.857 230.338 289.669 230.339 289.453C230.339 289.257 230.285 289.098 230.176 288.974C230.067 288.851 229.924 288.75 229.745 288.672C229.567 288.595 229.374 288.527 229.167 288.468L228.441 288.257C227.981 288.122 227.616 287.931 227.348 287.684C227.08 287.437 226.947 287.114 226.949 286.717C226.95 286.386 227.041 286.098 227.221 285.853C227.402 285.606 227.645 285.415 227.949 285.28C228.256 285.143 228.597 285.076 228.974 285.077C229.354 285.079 229.692 285.149 229.987 285.287C230.283 285.422 230.516 285.608 230.688 285.843C230.862 286.079 230.953 286.345 230.962 286.643L230.27 286.64ZM232.939 285.176L232.914 291.08L232.199 291.076L232.224 285.173L232.939 285.176ZM239.053 285.205L239.028 291.108L238.336 291.105L235.139 286.455L235.081 286.454L235.062 291.089L234.347 291.086L234.372 285.183L235.064 285.186L238.272 289.848L238.33 289.848L238.35 285.201L239.053 285.205ZM244.511 287.075C244.448 286.88 244.366 286.706 244.262 286.552C244.161 286.396 244.04 286.262 243.898 286.152C243.758 286.042 243.599 285.958 243.421 285.899C243.242 285.841 243.046 285.811 242.833 285.81C242.483 285.808 242.165 285.897 241.878 286.077C241.591 286.256 241.362 286.521 241.191 286.872C241.021 287.223 240.934 287.654 240.932 288.165C240.93 288.676 241.014 289.108 241.183 289.46C241.353 289.813 241.583 290.08 241.875 290.262C242.166 290.444 242.494 290.536 242.859 290.537C243.197 290.539 243.496 290.468 243.754 290.325C244.014 290.181 244.216 289.976 244.362 289.711C244.509 289.445 244.583 289.131 244.585 288.77L244.803 288.817L243.028 288.809L243.031 288.175L245.279 288.185L245.276 288.819C245.274 289.305 245.169 289.728 244.96 290.086C244.752 290.444 244.467 290.722 244.103 290.918C243.741 291.112 243.325 291.208 242.856 291.206C242.334 291.204 241.875 291.079 241.48 290.831C241.087 290.583 240.781 290.232 240.562 289.777C240.345 289.323 240.238 288.784 240.24 288.162C240.242 287.695 240.307 287.275 240.433 286.903C240.561 286.529 240.742 286.211 240.973 285.948C241.205 285.686 241.479 285.486 241.794 285.347C242.11 285.208 242.457 285.14 242.836 285.141C243.147 285.143 243.437 285.191 243.706 285.287C243.976 285.38 244.217 285.513 244.428 285.685C244.64 285.855 244.817 286.058 244.958 286.295C245.099 286.531 245.196 286.791 245.249 287.078L244.511 287.075ZM230.879 295.167L231.594 295.17L231.578 299.079C231.576 299.482 231.479 299.842 231.288 300.158C231.098 300.473 230.831 300.72 230.486 300.901C230.142 301.08 229.738 301.169 229.274 301.167C228.811 301.164 228.408 301.072 228.065 300.89C227.722 300.706 227.456 300.456 227.267 300.14C227.08 299.822 226.987 299.461 226.989 299.058L227.005 295.149L227.72 295.152L227.704 299.003C227.703 299.291 227.765 299.548 227.891 299.774C228.017 299.997 228.197 300.174 228.431 300.304C228.666 300.432 228.949 300.496 229.277 300.498C229.606 300.499 229.889 300.437 230.126 300.312C230.362 300.184 230.544 300.009 230.67 299.787C230.797 299.562 230.862 299.306 230.863 299.018L230.879 295.167ZM232.997 301.08L233.022 295.177L235.016 295.186C235.48 295.188 235.858 295.273 236.151 295.442C236.446 295.609 236.664 295.834 236.805 296.117C236.946 296.4 237.016 296.715 237.015 297.063C237.013 297.411 236.941 297.727 236.797 298.01C236.656 298.294 236.438 298.52 236.143 298.688C235.848 298.853 235.471 298.935 235.012 298.933L233.582 298.927L233.585 298.292L234.992 298.299C235.309 298.3 235.564 298.247 235.756 298.138C235.949 298.03 236.089 297.882 236.176 297.696C236.265 297.508 236.31 297.296 236.311 297.06C236.312 296.823 236.269 296.612 236.181 296.425C236.096 296.238 235.956 296.092 235.763 295.985C235.569 295.877 235.312 295.822 234.991 295.82L233.734 295.814L233.712 301.083L232.997 301.08Z" fill="#E8E8E3"/>
<path d="M221.537 146.544L198.557 146.438L198.537 150.655L221.518 150.761L221.537 146.544Z" fill="#2A872C"/>
<path opacity="0.1" d="M221.537 146.544L198.557 146.438L198.537 150.655L221.518 150.761L221.537 146.544Z" fill="black"/>
<path d="M288.913 172.419C288.913 172.401 289.101 172.428 289.44 172.294C289.753 172.168 290.253 171.793 290.307 171.087C290.307 169.667 290.298 167.594 290.298 164.931C290.298 163.591 290.298 162.108 290.298 160.481C290.298 160.07 290.298 159.659 290.298 159.239C290.307 158.802 290.307 158.4 290.048 158.069C289.815 157.738 289.413 157.524 288.993 157.524C288.538 157.524 288.064 157.524 287.591 157.524C283.793 157.515 279.46 157.506 274.688 157.497C255.55 157.426 229.129 157.327 199.956 157.22C199.572 157.22 199.197 157.408 198.973 157.721C198.723 158.033 198.732 158.409 198.741 158.891C198.741 159.793 198.732 160.705 198.732 161.598C198.723 163.403 198.714 165.19 198.705 166.968C198.705 167.853 198.696 168.746 198.696 169.622C198.714 170.042 198.652 170.551 198.732 170.882C198.821 171.239 199.089 171.543 199.429 171.686C199.608 171.757 199.768 171.784 199.983 171.784H200.635L201.94 171.793C202.806 171.793 203.673 171.802 204.531 171.802C211.411 171.838 218.049 171.874 224.375 171.909C237.018 171.99 248.402 172.052 257.971 172.115C267.523 172.186 275.26 172.249 280.621 172.294C283.284 172.32 285.357 172.347 286.777 172.365C287.465 172.374 288.002 172.392 288.377 172.392C288.734 172.401 288.913 172.419 288.913 172.419C288.913 172.419 288.725 172.436 288.368 172.436C287.993 172.436 287.457 172.445 286.769 172.454C285.339 172.454 283.266 172.463 280.612 172.472C275.251 172.463 267.514 172.454 257.962 172.445C248.393 172.419 237.01 172.383 224.367 172.338C218.041 172.311 211.402 172.285 204.522 172.258C203.664 172.258 202.797 172.249 201.931 172.249L200.626 172.24H199.974C199.751 172.249 199.474 172.213 199.241 172.106C198.777 171.909 198.401 171.489 198.276 170.998C198.205 170.748 198.223 170.489 198.223 170.283V169.622C198.223 168.737 198.232 167.853 198.232 166.968C198.241 165.19 198.249 163.403 198.249 161.598C198.249 160.696 198.258 159.793 198.258 158.891C198.267 158.659 198.249 158.453 198.285 158.176C198.321 157.917 198.428 157.667 198.58 157.452C198.884 157.024 199.411 156.756 199.938 156.764C229.111 156.925 255.532 157.068 274.671 157.176C279.451 157.211 283.775 157.238 287.582 157.274C288.055 157.274 288.52 157.283 288.984 157.283C289.485 157.292 289.958 157.542 290.235 157.935C290.539 158.319 290.539 158.846 290.521 159.248C290.521 159.668 290.512 160.088 290.512 160.499C290.494 162.126 290.485 163.609 290.477 164.949C290.441 167.612 290.414 169.685 290.405 171.114C290.325 171.856 289.789 172.24 289.467 172.356C289.109 172.463 288.913 172.419 288.913 172.419Z" fill="#E0E0E0"/>
<path d="M246.751 162.85L204.721 162.656L204.703 166.596L246.733 166.79L246.751 162.85Z" fill="#2A872C"/>
<path opacity="0.2" d="M246.751 162.85L204.721 162.656L204.703 166.596L246.733 166.79L246.751 162.85Z" fill="white"/>
<path d="M221.377 185.018L198.396 184.912L198.377 189.13L221.358 189.236L221.377 185.018Z" fill="#2A872C"/>
<path opacity="0.1" d="M221.377 185.018L198.396 184.912L198.377 189.13L221.358 189.236L221.377 185.018Z" fill="black"/>
<path d="M288.324 210.893C288.324 210.875 288.512 210.893 288.851 210.794C289.173 210.687 289.7 210.419 289.986 209.785C290.138 209.472 290.156 209.088 290.138 208.65C290.138 208.212 290.138 207.739 290.129 207.229C290.129 206.202 290.129 205.014 290.12 203.691C290.12 202.36 290.12 200.877 290.12 199.259C290.12 198.857 290.12 198.437 290.12 198.017C290.138 197.589 290.084 197.195 289.861 196.838C289.646 196.49 289.298 196.213 288.887 196.087C288.485 195.962 288.011 196.034 287.538 196.007C283.749 195.998 279.443 195.989 274.671 195.98C255.595 195.909 229.273 195.81 200.198 195.703C199.394 195.685 198.643 196.347 198.563 197.142C198.536 197.991 198.545 198.929 198.536 199.813C198.527 201.609 198.518 203.396 198.509 205.165C198.509 206.05 198.5 206.935 198.5 207.81C198.518 208.248 198.456 208.704 198.554 209.061C198.652 209.427 198.894 209.758 199.206 209.981C199.537 210.205 199.885 210.285 200.314 210.267L201.61 210.276C202.476 210.276 203.334 210.285 204.192 210.285C211.045 210.321 217.666 210.357 223.965 210.392C236.563 210.473 247.911 210.535 257.445 210.598C266.96 210.669 274.671 210.732 280.014 210.777C282.668 210.812 284.732 210.83 286.153 210.848C286.841 210.866 287.368 210.875 287.752 210.875C288.145 210.875 288.324 210.893 288.324 210.893C288.324 210.893 288.136 210.911 287.779 210.911C287.404 210.911 286.876 210.92 286.18 210.929C284.759 210.929 282.695 210.937 280.041 210.946C274.698 210.937 266.987 210.929 257.471 210.92C247.938 210.893 236.59 210.857 223.992 210.812C217.693 210.786 211.072 210.759 204.219 210.732C203.361 210.732 202.503 210.723 201.637 210.723L200.341 210.714C199.903 210.741 199.367 210.634 198.974 210.348C198.572 210.071 198.268 209.651 198.134 209.177C198 208.677 198.08 208.239 198.063 207.81C198.063 206.935 198.071 206.05 198.071 205.165C198.08 203.396 198.089 201.609 198.089 199.813C198.098 198.902 198.08 198.044 198.116 197.088C198.214 196.061 199.171 195.212 200.216 195.239C229.29 195.399 255.613 195.542 274.689 195.65C279.451 195.685 283.758 195.712 287.547 195.748C288.011 195.775 288.485 195.694 288.967 195.846C289.432 195.989 289.825 196.311 290.066 196.713C290.325 197.106 290.379 197.606 290.352 198.017C290.352 198.437 290.343 198.857 290.343 199.259C290.325 200.877 290.316 202.36 290.307 203.691C290.29 205.022 290.281 206.202 290.272 207.229C290.263 207.739 290.263 208.212 290.254 208.65C290.263 209.079 290.236 209.499 290.066 209.821C289.754 210.482 289.2 210.75 288.86 210.839C288.512 210.92 288.324 210.893 288.324 210.893Z" fill="#E0E0E0"/>
<path d="M221.207 225.155L198.227 225.049L198.207 229.266L221.188 229.372L221.207 225.155Z" fill="#2A872C"/>
<path opacity="0.1" d="M221.207 225.155L198.227 225.049L198.207 229.266L221.188 229.372L221.207 225.155Z" fill="black"/>
<path d="M288.154 251.02C288.154 251.002 288.342 251.02 288.681 250.921C289.003 250.814 289.53 250.546 289.816 249.912C289.968 249.599 289.986 249.215 289.968 248.777C289.968 248.339 289.968 247.866 289.959 247.356C289.959 246.329 289.959 245.141 289.95 243.818C289.95 242.487 289.95 241.004 289.95 239.386C289.95 238.984 289.95 238.564 289.95 238.144C289.968 237.716 289.914 237.322 289.691 236.965C289.476 236.617 289.128 236.34 288.717 236.214C288.315 236.089 287.841 236.161 287.368 236.134C283.579 236.125 279.273 236.116 274.51 236.107C255.434 236.036 229.112 235.937 200.037 235.83C199.233 235.812 198.482 236.465 198.402 237.269C198.375 238.118 198.384 239.056 198.375 239.94C198.366 241.736 198.357 243.523 198.348 245.292C198.348 246.177 198.339 247.062 198.339 247.937C198.357 248.375 198.295 248.831 198.393 249.188C198.491 249.554 198.733 249.885 199.045 250.108C199.376 250.332 199.724 250.412 200.153 250.394L201.449 250.403C202.315 250.403 203.173 250.412 204.031 250.412C210.884 250.448 217.505 250.484 223.804 250.519C236.402 250.6 247.75 250.662 257.284 250.725C266.799 250.796 274.51 250.859 279.853 250.904C282.507 250.939 284.571 250.957 285.992 250.975C286.68 250.984 287.216 251.002 287.591 251.002C287.975 251.002 288.154 251.02 288.154 251.02C288.154 251.02 287.966 251.038 287.609 251.038C287.234 251.038 286.707 251.047 286.01 251.056C284.589 251.056 282.525 251.064 279.871 251.073C274.528 251.064 266.817 251.055 257.301 251.047C247.768 251.02 236.42 250.984 223.822 250.939C217.523 250.913 210.902 250.886 204.049 250.859C203.191 250.859 202.333 250.85 201.467 250.85L200.171 250.841C199.733 250.868 199.197 250.761 198.804 250.475C198.402 250.198 198.098 249.778 197.964 249.304C197.83 248.804 197.911 248.366 197.893 247.928C197.893 247.053 197.902 246.168 197.902 245.283C197.911 243.514 197.919 241.727 197.919 239.931C197.928 239.02 197.911 238.162 197.946 237.206C198.045 236.179 199.001 235.33 200.046 235.357C229.12 235.518 255.443 235.661 274.519 235.768C279.282 235.803 283.588 235.83 287.377 235.866C287.841 235.893 288.315 235.812 288.797 235.964C289.262 236.107 289.655 236.429 289.896 236.831C290.155 237.224 290.209 237.724 290.182 238.135C290.182 238.555 290.173 238.975 290.173 239.377C290.155 240.995 290.147 242.478 290.138 243.809C290.12 245.141 290.111 246.32 290.102 247.347C290.093 247.857 290.093 248.33 290.084 248.768C290.093 249.197 290.066 249.617 289.896 249.939C289.584 250.6 289.03 250.868 288.69 250.957C288.351 251.056 288.154 251.02 288.154 251.02Z" fill="#E0E0E0"/>
<path d="M246.591 201.324L204.561 201.13L204.542 205.07L246.573 205.265L246.591 201.324Z" fill="#2A872C"/>
<path opacity="0.2" d="M246.591 201.324L204.561 201.13L204.542 205.07L246.573 205.265L246.591 201.324Z" fill="white"/>
<path d="M208.373 243.729C208.364 244.81 207.542 245.686 206.523 245.677C205.504 245.668 204.691 244.792 204.691 243.711C204.7 242.63 205.522 241.754 206.541 241.763C207.56 241.763 208.382 242.648 208.373 243.729Z" fill="#2A872C"/>
<path d="M214.064 243.756C214.055 244.837 213.233 245.712 212.214 245.704C211.196 245.704 210.383 244.819 210.383 243.738C210.383 242.657 211.214 241.781 212.232 241.79C213.251 241.79 214.073 242.666 214.064 243.756Z" fill="#2A872C"/>
<path d="M219.765 243.782C219.765 244.864 218.934 245.739 217.916 245.73C216.897 245.73 216.084 244.846 216.084 243.765C216.093 242.683 216.915 241.808 217.934 241.817C218.952 241.817 219.765 242.692 219.765 243.782Z" fill="#2A872C"/>
<path d="M225.457 243.809C225.457 244.89 224.626 245.766 223.607 245.757C222.588 245.757 221.775 244.873 221.775 243.791C221.775 242.71 222.606 241.835 223.625 241.844C224.644 241.844 225.466 242.719 225.457 243.809Z" fill="#2A872C"/>
<path d="M231.148 243.827C231.148 244.908 230.317 245.784 229.298 245.775C228.28 245.775 227.467 244.89 227.467 243.809C227.476 242.728 228.298 241.852 229.316 241.861C230.335 241.87 231.157 242.746 231.148 243.827Z" fill="#2A872C"/>
<path d="M236.849 243.854C236.849 244.935 236.018 245.811 235 245.802C233.981 245.802 233.168 244.917 233.168 243.836C233.168 242.755 233.999 241.879 235.017 241.888C236.027 241.897 236.849 242.773 236.849 243.854Z" fill="#2A872C"/>
<path d="M242.541 243.881C242.532 244.962 241.71 245.837 240.691 245.829C239.672 245.82 238.859 244.944 238.859 243.863C238.859 242.782 239.69 241.906 240.709 241.915C241.728 241.924 242.541 242.8 242.541 243.881Z" fill="#2A872C"/>
<path d="M248.232 243.908C248.232 244.989 247.401 245.864 246.382 245.855C245.364 245.846 244.551 244.971 244.551 243.89C244.551 242.809 245.382 241.933 246.4 241.942C247.419 241.942 248.241 242.826 248.232 243.908Z" fill="#2A872C"/>
<path d="M253.923 243.934C253.923 245.016 253.092 245.891 252.074 245.882C251.055 245.882 250.242 244.998 250.242 243.917C250.251 242.835 251.073 241.96 252.092 241.969C253.11 241.969 253.932 242.853 253.923 243.934Z" fill="#2A872C"/>
<g opacity="0.2">
<path d="M208.373 243.729C208.364 244.81 207.542 245.686 206.523 245.677C205.504 245.668 204.691 244.792 204.691 243.711C204.7 242.63 205.522 241.754 206.541 241.763C207.56 241.763 208.382 242.648 208.373 243.729Z" fill="white"/>
<path d="M214.064 243.756C214.055 244.837 213.233 245.712 212.214 245.704C211.196 245.704 210.383 244.819 210.383 243.738C210.383 242.657 211.214 241.781 212.232 241.79C213.251 241.79 214.073 242.666 214.064 243.756Z" fill="white"/>
<path d="M219.765 243.782C219.765 244.864 218.934 245.739 217.916 245.73C216.897 245.73 216.084 244.846 216.084 243.765C216.093 242.683 216.915 241.808 217.934 241.817C218.952 241.817 219.765 242.692 219.765 243.782Z" fill="white"/>
<path d="M225.457 243.809C225.457 244.89 224.626 245.766 223.607 245.757C222.588 245.757 221.775 244.873 221.775 243.791C221.775 242.71 222.606 241.835 223.625 241.844C224.644 241.844 225.466 242.719 225.457 243.809Z" fill="white"/>
<path d="M231.148 243.827C231.148 244.908 230.317 245.784 229.298 245.775C228.28 245.775 227.467 244.89 227.467 243.809C227.476 242.728 228.298 241.852 229.316 241.861C230.335 241.87 231.157 242.746 231.148 243.827Z" fill="white"/>
<path d="M236.849 243.854C236.849 244.935 236.018 245.811 235 245.802C233.981 245.802 233.168 244.917 233.168 243.836C233.168 242.755 233.999 241.879 235.017 241.888C236.027 241.897 236.849 242.773 236.849 243.854Z" fill="white"/>
<path d="M242.541 243.881C242.532 244.962 241.71 245.837 240.691 245.829C239.672 245.82 238.859 244.944 238.859 243.863C238.859 242.782 239.69 241.906 240.709 241.915C241.728 241.924 242.541 242.8 242.541 243.881Z" fill="white"/>
<path d="M248.232 243.908C248.232 244.989 247.401 245.864 246.382 245.855C245.364 245.846 244.551 244.971 244.551 243.89C244.551 242.809 245.382 241.933 246.4 241.942C247.419 241.942 248.241 242.826 248.232 243.908Z" fill="white"/>
<path d="M253.923 243.934C253.923 245.016 253.092 245.891 252.074 245.882C251.055 245.882 250.242 244.998 250.242 243.917C250.251 242.835 251.073 241.96 252.092 241.969C253.11 241.969 253.932 242.853 253.923 243.934Z" fill="white"/>
</g>
<path d="M245.837 114.949C247.043 114.448 247.892 113.206 247.901 111.741C247.91 109.829 246.462 108.265 244.666 108.256C242.87 108.247 241.414 109.793 241.405 111.705C241.396 113.18 242.263 114.43 243.478 114.94C238.474 115.69 238.707 121.132 238.707 121.132L250.528 121.185C250.528 121.185 250.796 115.69 245.837 114.949Z" fill="#2A872C"/>
<path opacity="0.1" d="M245.837 114.949C247.043 114.448 247.892 113.206 247.901 111.741C247.91 109.829 246.462 108.265 244.666 108.256C242.87 108.247 241.414 109.793 241.405 111.705C241.396 113.18 242.263 114.43 243.478 114.94C238.474 115.69 238.707 121.132 238.707 121.132L250.528 121.185C250.528 121.185 250.796 115.69 245.837 114.949Z" fill="black"/>
<path d="M265.053 124.751L222.889 124.556L222.865 129.595L265.03 129.79L265.053 124.751Z" fill="#2A872C"/>
<path opacity="0.2" d="M265.053 124.751L222.889 124.556L222.865 129.595L265.03 129.79L265.053 124.751Z" fill="white"/>
<path d="M110.051 150.841C110.051 150.85 109.908 150.867 109.64 150.885C109.345 150.903 108.943 150.939 108.425 150.975C107.889 150.984 107.237 151.1 106.468 151.234C106.084 151.314 105.664 151.341 105.226 151.466C104.788 151.591 104.333 151.716 103.841 151.85C101.911 152.458 99.5883 153.423 97.2563 155.12C94.9242 156.8 92.5922 159.204 90.7695 162.34C89.8134 163.877 89.1165 165.664 88.5 167.531C87.9907 169.434 87.5439 171.454 87.5082 173.589C87.4099 174.652 87.5171 175.734 87.5618 176.824C87.5886 177.369 87.7047 177.914 87.7762 178.468C87.8477 179.022 87.9281 179.576 88.089 180.121C88.5446 182.345 89.4471 184.517 90.5908 186.607C92.8781 190.798 96.7202 194.408 101.474 196.498C103.85 197.544 106.477 198.116 109.149 198.223C111.82 198.393 114.563 197.964 117.163 197.07L117.95 196.784L118.057 196.749L118.155 196.793C121.997 198.741 125.768 200.662 129.422 202.512L129.083 202.798C127.877 199.063 126.715 195.444 125.598 191.968L125.553 191.834L125.652 191.736C128.493 188.895 130.468 185.437 131.567 181.899C132.666 178.351 132.853 174.742 132.424 171.427C131.996 168.112 130.914 165.092 129.467 162.554C128.019 160.008 126.224 157.935 124.383 156.327C122.516 154.727 120.577 153.637 118.843 152.806C117.065 152.065 115.484 151.591 114.17 151.332C113.509 151.216 112.928 151.118 112.419 151.037C111.91 151.001 111.481 150.975 111.123 150.948C110.793 150.921 110.525 150.903 110.328 150.885C110.141 150.858 110.051 150.85 110.051 150.841C110.051 150.832 110.141 150.832 110.319 150.832C110.516 150.841 110.784 150.841 111.114 150.858C111.472 150.876 111.91 150.894 112.419 150.912C112.937 150.992 113.527 151.073 114.188 151.171C115.519 151.404 117.119 151.859 118.924 152.592C120.684 153.414 122.65 154.495 124.553 156.103C126.438 157.721 128.27 159.802 129.753 162.385C131.236 164.949 132.353 168.014 132.8 171.382C133.246 174.742 133.077 178.414 131.969 182.033C130.861 185.633 128.859 189.163 125.964 192.067L126.018 191.834C127.144 195.31 128.314 198.929 129.521 202.655L129.699 203.2L129.19 202.941C125.536 201.091 121.765 199.179 117.914 197.222L118.111 197.231L117.306 197.526C114.653 198.437 111.847 198.875 109.113 198.705C106.379 198.589 103.698 198.008 101.268 196.936C96.4164 194.792 92.5028 191.102 90.1797 186.831C89.0182 184.704 88.1068 182.479 87.6511 180.219C87.4903 179.665 87.4099 179.102 87.3384 178.539C87.2669 177.976 87.1508 177.422 87.124 176.868C87.0793 175.751 86.981 174.652 87.0793 173.58C87.124 171.418 87.5886 169.363 88.1158 167.433C88.7591 165.539 89.4739 163.734 90.4478 162.179C92.3152 159.007 94.6919 156.595 97.0686 154.915C99.4453 153.226 101.804 152.27 103.761 151.689C104.252 151.564 104.726 151.439 105.164 151.323C105.602 151.198 106.03 151.18 106.415 151.109C107.192 150.984 107.853 150.885 108.389 150.894C108.908 150.876 109.319 150.867 109.613 150.85C109.908 150.832 110.051 150.832 110.051 150.841Z" fill="#2A872C"/>
<path d="M115.144 171.704H113.491L109.89 166.682V163.385C109.89 163.385 107.335 163.224 107.639 167.54C107.943 171.856 107.612 170.757 107.612 170.757C107.612 170.757 102.189 170.775 101.742 171.248C101.411 171.588 101.268 176.975 101.206 179.897C101.179 181.371 102.081 182.73 103.448 183.078C103.645 183.132 103.841 183.158 104.029 183.158C105.378 183.158 112.285 182.059 112.285 182.059H115.135V171.704H115.144Z" fill="#2A872C"/>
<path d="M119.871 170.792L118.853 182.086H116.029V171.025L119.871 170.792Z" fill="#2A872C"/>
<path d="M153.548 400.717V393.068L139.851 392.979L139.734 404.523L140.583 404.586C144.363 404.827 159.811 405.184 162.34 404.398C165.172 403.531 153.548 400.717 153.548 400.717Z" fill="#2A872C"/>
<path d="M162.671 403.692C162.671 403.817 157.551 403.924 151.225 403.924C144.908 403.924 139.779 403.817 139.779 403.692C139.779 403.567 144.899 403.46 151.225 403.46C157.542 403.46 162.671 403.567 162.671 403.692Z" fill="#252C32"/>
<path d="M153.79 402.28C153.674 402.218 153.772 401.816 154.067 401.423C154.362 401.021 154.719 400.815 154.808 400.904C154.898 400.994 154.71 401.333 154.442 401.7C154.174 402.057 153.906 402.343 153.79 402.28Z" fill="#252C32"/>
<path d="M154.665 402.781C154.549 402.736 154.612 402.28 154.88 401.807C155.148 401.324 155.505 401.039 155.603 401.119C155.702 401.199 155.532 401.592 155.282 402.03C155.031 402.477 154.781 402.826 154.665 402.781Z" fill="#252C32"/>
<path d="M143.906 403.656C143.853 403.692 143.647 403.496 143.352 403.156C143.057 402.825 142.664 402.352 142.155 401.95C141.646 401.557 141.083 401.351 140.672 401.307C140.252 401.253 139.984 401.315 139.957 401.244C139.93 401.19 140.189 401.003 140.681 400.976C141.163 400.94 141.851 401.128 142.432 401.584C143.013 402.03 143.379 402.575 143.611 402.96C143.853 403.362 143.96 403.621 143.906 403.656Z" fill="#252C32"/>
<path d="M153.833 400.842C153.904 400.949 153.663 401.217 153.27 401.36C152.877 401.503 152.528 401.458 152.511 401.324C152.493 401.199 152.77 401.047 153.109 400.922C153.449 400.797 153.761 400.735 153.833 400.842Z" fill="#252C32"/>
<path d="M153.62 400.1C153.629 400.225 153.271 400.342 152.807 400.342C152.342 400.351 151.976 400.252 151.985 400.118C151.993 399.993 152.36 399.877 152.798 399.877C153.235 399.877 153.602 399.975 153.62 400.1Z" fill="#252C32"/>
<path d="M187.278 400.717V393.068L173.581 392.979L173.465 404.407L174.314 404.47C178.093 404.711 193.542 405.184 196.07 404.407C198.903 403.531 187.278 400.717 187.278 400.717Z" fill="#2A872C"/>
<path d="M196.401 403.71C196.401 403.835 191.281 403.942 184.955 403.942C178.638 403.942 173.51 403.835 173.51 403.71C173.51 403.585 178.63 403.478 184.955 403.478C191.281 403.478 196.401 403.585 196.401 403.71Z" fill="#252C32"/>
<path d="M187.52 402.28C187.404 402.218 187.502 401.816 187.797 401.423C188.092 401.021 188.449 400.815 188.539 400.904C188.628 400.994 188.441 401.333 188.172 401.7C187.904 402.057 187.636 402.343 187.52 402.28Z" fill="#252C32"/>
<path d="M188.396 402.781C188.279 402.736 188.342 402.28 188.61 401.807C188.878 401.324 189.235 401.039 189.334 401.119C189.432 401.199 189.262 401.592 189.012 402.03C188.762 402.477 188.521 402.826 188.396 402.781Z" fill="#252C32"/>
<path d="M177.637 403.656C177.583 403.692 177.378 403.496 177.083 403.156C176.788 402.825 176.395 402.352 175.885 401.95C175.376 401.557 174.813 401.351 174.402 401.307C173.982 401.253 173.714 401.315 173.687 401.244C173.661 401.19 173.92 401.003 174.411 400.976C174.894 400.94 175.582 401.128 176.162 401.584C176.743 402.03 177.11 402.575 177.342 402.96C177.583 403.362 177.69 403.621 177.637 403.656Z" fill="#252C32"/>
<path d="M187.563 400.842C187.626 400.949 187.394 401.217 187.001 401.36C186.607 401.503 186.259 401.458 186.241 401.324C186.223 401.199 186.5 401.047 186.84 400.922C187.188 400.797 187.492 400.735 187.563 400.842Z" fill="#252C32"/>
<path d="M187.35 400.1C187.359 400.225 187.002 400.342 186.537 400.342C186.072 400.351 185.706 400.252 185.715 400.118C185.724 399.993 186.09 399.877 186.528 399.877C186.966 399.877 187.332 399.975 187.35 400.1Z" fill="#252C32"/>
<path d="M237.743 173.857C237.385 173.491 236.51 173.661 236.51 173.661C236.51 173.661 236.662 172.615 236.501 172.115C236.34 171.606 235.214 171.704 235.214 171.704C235.214 171.704 235.143 171.221 235.241 170.435C235.268 170.239 235.161 170.096 234.982 169.988C234.446 169.667 233.302 169.685 233.302 169.685C232.614 169.193 235.402 165.289 236.438 164.038C237.457 162.805 237.287 161.813 236.367 161.813C235.741 161.813 232.48 165.566 231.488 166.825C230.497 168.085 227.825 171.588 227.736 168.791C227.646 165.994 226.52 163.877 225.824 163.519C225.118 163.162 224.367 164.002 224.751 164.779C225.064 165.405 225.261 166.62 225.377 167.531C225.466 168.282 225.439 169.05 225.27 169.792C224.805 171.883 224.305 173.25 224.063 173.83L223.992 173.795C223.992 173.795 204.487 192.496 203.084 193.827C201.815 195.024 176.476 192.406 171.4 191.87C170.016 191.718 167.96 191.432 166.173 191.513C163.975 191.611 163.582 191.924 161.375 191.951C154.629 192.04 149 192.701 144.819 193.407C139.762 194.265 135.607 197.866 134.043 202.753C128.923 218.747 117.326 256.604 115.262 277.87C113.636 280.925 111.813 284.499 111.08 286.51C109.642 290.423 109.99 290.548 110.473 290.638C111.768 290.879 113.26 283.856 113.814 285.554C114.368 287.251 111 293.926 112.367 294.122C114.154 294.381 115.575 287.001 115.735 286.385C115.896 285.786 116.799 285.991 116.62 286.537C116.361 287.323 113.85 295.659 115.592 295.927C116.566 296.079 116.665 294.31 116.665 294.31C116.665 294.31 118.443 286.34 119.265 286.492C120.096 286.644 119.211 291.361 118.8 292.934C118.389 294.489 118.97 295.311 119.801 294.918C120.373 294.65 121.74 289.878 122.115 288.315C122.481 286.751 123.428 282.453 124.688 284.946C125.948 287.439 127.86 288.886 128.646 288.922C129.433 288.949 129.763 287.868 129.084 287.323C128.53 286.885 127.842 285.875 127.36 285.089C126.958 284.446 126.663 283.74 126.502 282.998C125.877 280.139 125.877 278.477 125.877 278.477L125.734 277.557C127.735 267.648 133.498 238.565 141.79 219.989L145.203 227.012L146.686 232.212L137.59 254.674L176.377 254.165L170.596 231.881L177.619 208.65C185.223 208.82 204.755 209.106 208.034 207.64C212.126 205.809 233.302 179.12 233.302 179.12C234.732 177.985 236.188 176.752 237.26 175.689C237.251 175.68 238.52 174.661 237.743 173.857Z" fill="#FFBE9D"/>
<path d="M135.893 238.145C137.019 234.302 142.8 215.307 142.8 215.307C142.8 215.307 145.641 230.791 144.89 232.658C144.033 234.812 142.451 237.269 142.451 237.269C135.893 247.258 136.751 252.253 136.751 252.253L176.368 251.047C176.467 245.507 173.188 232.623 172.5 230.568C171.812 228.513 174.09 221.776 174.09 221.776C174.09 221.776 178.566 217.228 178.397 214.887C178.048 210.169 177.619 208.65 177.619 208.65L201.726 209.535L200.967 193.175L166.317 189.708C165.119 193.121 154.201 191.45 154.201 191.45C142.415 191.834 141.71 194.006 136.795 197.812C131.881 201.618 123.795 234.285 123.795 234.285L135.893 238.145Z" fill="#2A872C"/>
<path d="M159.321 234.276C159.321 234.338 158.526 234.392 157.23 234.383C155.943 234.374 154.156 234.293 152.2 234.097C150.243 233.9 148.474 233.623 147.214 233.373C145.945 233.123 145.177 232.917 145.186 232.855C145.195 232.792 145.99 232.882 147.267 233.052C148.545 233.212 150.296 233.436 152.244 233.632C154.192 233.829 155.961 233.963 157.239 234.052C158.535 234.151 159.33 234.213 159.321 234.276Z" fill="#252C32"/>
<path d="M162.037 230.907C162.055 230.961 161.233 231.273 159.875 231.649C158.517 232.015 156.605 232.426 154.46 232.685C152.316 232.935 150.359 232.989 148.956 232.953C147.544 232.918 146.678 232.801 146.678 232.739C146.678 232.667 147.553 232.667 148.956 232.623C150.359 232.578 152.289 232.48 154.407 232.221C156.524 231.97 158.427 231.613 159.803 231.327C161.17 231.041 162.019 230.845 162.037 230.907Z" fill="#252C32"/>
<path d="M175.368 215.878C175.43 215.887 175.332 216.665 175.1 217.898C174.867 219.131 174.51 220.828 174.054 222.696C173.598 224.563 173.134 226.234 172.768 227.431C172.401 228.638 172.133 229.37 172.071 229.352C172.008 229.335 172.16 228.575 172.446 227.351C172.785 225.957 173.17 224.358 173.598 222.589C174.036 220.82 174.429 219.229 174.778 217.835C175.082 216.611 175.296 215.87 175.368 215.878Z" fill="#252C32"/>
<path d="M136.313 235.866C136.277 235.991 133.543 235.357 130.21 234.445C126.869 233.534 124.197 232.694 124.233 232.569C124.269 232.444 127.003 233.087 130.335 233.99C133.668 234.901 136.349 235.741 136.313 235.866Z" fill="#252C32"/>
<path d="M178.048 208.445C178.048 208.462 177.681 208.507 177.02 208.436C176.368 208.364 175.403 208.212 174.295 207.783C173.187 207.363 171.918 206.676 170.739 205.621C169.559 204.576 168.505 203.128 167.835 201.431C167.156 199.733 166.924 197.964 167.031 196.391C167.138 194.819 167.549 193.398 168.255 192.406C168.952 191.397 169.872 190.914 170.515 190.744C170.837 190.655 171.105 190.637 171.275 190.646C171.454 190.655 171.543 190.673 171.543 190.682C171.543 190.727 171.177 190.709 170.569 190.914C169.979 191.129 169.14 191.629 168.523 192.594C167.308 194.506 166.968 198 168.264 201.261C168.916 202.896 169.908 204.281 171.025 205.3C172.142 206.327 173.348 207.033 174.411 207.48C176.573 208.373 178.066 208.337 178.048 208.445Z" fill="#252C32"/>
<path d="M198.875 209.213C198.75 209.213 198.652 205.523 198.661 200.984C198.67 196.436 198.777 192.746 198.911 192.746C199.036 192.746 199.134 196.436 199.125 200.984C199.116 205.523 199.009 209.213 198.875 209.213Z" fill="#252C32"/>
<path d="M166.101 190.709C166.2 188.716 166.405 186.464 166.405 186.464C166.405 186.464 171.337 185.919 171.632 180.826C171.927 175.734 171.632 163.984 171.632 163.984L162.652 159.409L152.779 167.21L154.28 192.674L163.367 193.255C164.797 193.344 166.03 192.201 166.101 190.709Z" fill="#FFBE9D"/>
<path d="M166.987 176.797C167.004 176.797 167.004 176.895 166.906 177.02C166.817 177.136 166.62 177.279 166.343 177.27C165.771 177.244 165.217 176.609 165.021 175.841C164.923 175.448 164.923 175.055 164.994 174.706C165.057 174.367 165.253 174.027 165.53 173.938C165.664 173.884 165.807 173.893 165.905 173.947C166.013 174 166.075 174.081 166.111 174.152C166.173 174.304 166.129 174.393 166.111 174.384C166.093 174.384 166.093 174.304 166.022 174.206C165.95 174.107 165.78 174.018 165.602 174.116C165.414 174.206 165.28 174.447 165.235 174.751C165.182 175.055 165.182 175.412 165.28 175.76C165.459 176.448 165.941 177.02 166.361 177.074C166.576 177.101 166.745 177.02 166.844 176.94C166.933 176.859 166.969 176.788 166.987 176.797Z" fill="#EB996E"/>
<path d="M174.697 161.241C174.009 158.9 171.516 157.73 169.246 157.086C165.788 156.103 162.045 155.674 158.676 156.916C155.299 158.158 151.242 160.347 151.242 164.073C149.25 163.913 148.115 165.655 147.32 167.817C146.855 169.095 146.542 170.515 146.471 171.927L146.435 171.918C146.176 176.797 144.818 183.525 141.655 187.135C139.904 189.127 137.393 190.503 136.374 192.987C135.49 195.149 135.945 197.696 135.115 199.876C134.373 201.797 132.738 203.164 131.567 204.835C129.012 208.48 128.842 213.627 130.718 217.692C132.595 221.758 136.312 224.733 140.44 226.1C144.568 227.467 149.071 227.315 153.27 226.216C156.371 225.412 159.391 224.072 161.866 221.954C164.341 219.846 166.235 216.906 166.798 213.627C167.423 209.972 166.405 206.273 165.654 202.646C163.278 191.173 163.957 190.584 166.959 179.942C167.03 179.754 167.066 179.558 167.12 179.37C167.155 179.227 167.2 179.093 167.236 178.95H167.227C167.307 178.53 167.37 178.11 167.37 177.681C166.503 178.021 165.449 177.798 164.788 177.118C164.118 176.448 163.876 175.358 164.18 174.447C164.529 173.393 165.494 172.696 166.485 172.276C167.477 171.856 168.54 171.65 169.514 171.186C171.578 170.203 173.008 168.166 173.982 166.03C174.652 164.529 175.161 162.822 174.697 161.241Z" fill="#252C32"/>
<path d="M167.344 177.011C167.37 177.002 167.549 177.333 167.817 177.896C168.085 178.459 168.443 179.254 168.836 180.174L168.907 180.344L168.72 180.362C168.425 180.389 168.121 180.416 167.808 180.442C167.183 180.487 166.665 180.558 166.057 180.55C165.959 180.532 165.851 180.442 165.825 180.344C165.789 180.246 165.798 180.165 165.807 180.094C165.834 179.951 165.86 179.853 165.887 179.728L166.048 179.093C166.245 178.325 166.388 177.851 166.423 177.86C166.459 177.869 166.388 178.36 166.236 179.138L166.111 179.781C166.066 179.996 165.986 180.317 166.102 180.299C166.548 180.281 167.183 180.21 167.773 180.165C168.085 180.139 168.38 180.121 168.684 180.094L168.568 180.281C168.184 179.361 167.862 178.548 167.638 177.967C167.424 177.387 167.308 177.029 167.344 177.011Z" fill="#2A872C"/>
<path d="M136.751 252.244L176.369 251.038L193.596 318.354L190.424 395.57H169.453L172.053 319.998L156.73 273.134L159.089 398.563L137.922 398.876L135.688 280.979C135.598 277.7 134.517 270.311 134.919 267.058L136.751 252.244Z" fill="#252C32"/>
<path d="M162.01 274.09C162.001 274.153 161.259 274.117 160.071 273.974C158.882 273.831 157.238 273.581 155.442 273.223C153.647 272.857 152.038 272.455 150.886 272.124C149.733 271.794 149.036 271.544 149.045 271.481C149.081 271.356 151.958 272.053 155.532 272.768C159.106 273.482 162.028 273.956 162.01 274.09Z" fill="#455A64"/>
<path d="M190.235 391.335C190.235 391.46 185.491 391.567 179.629 391.567C173.768 391.567 169.023 391.46 169.023 391.335C169.023 391.21 173.768 391.103 179.629 391.103C185.491 391.103 190.235 391.201 190.235 391.335Z" fill="#455A64"/>
<path d="M158.91 395.302C158.91 395.427 154.309 395.535 148.626 395.535C142.943 395.535 138.342 395.427 138.342 395.302C138.342 395.177 142.943 395.07 148.626 395.07C154.3 395.07 158.91 395.177 158.91 395.302Z" fill="#455A64"/>
<path d="M156.176 394.981C156.051 394.981 155.488 367.577 154.934 333.776C154.38 299.966 154.031 272.553 154.156 272.553C154.281 272.553 154.844 299.957 155.398 333.767C155.961 367.568 156.31 394.981 156.176 394.981Z" fill="#455A64"/>
<path d="M187.421 391.335C187.413 391.335 187.413 391.21 187.413 390.969C187.421 390.71 187.421 390.352 187.43 389.896C187.457 388.932 187.502 387.547 187.547 385.786C187.672 382.186 187.85 377.03 188.074 370.659C188.565 357.865 189.235 340.236 189.986 320.757C189.995 320.579 190.004 320.4 190.004 320.23L190.013 320.293C185.313 301.494 181.069 284.499 177.995 272.178C176.485 266.04 175.261 261.072 174.412 257.605C174.001 255.898 173.688 254.567 173.465 253.638C173.367 253.2 173.286 252.86 173.233 252.601C173.179 252.369 173.161 252.244 173.17 252.244C173.179 252.244 173.215 252.36 173.277 252.592C173.349 252.843 173.438 253.182 173.554 253.611C173.796 254.54 174.144 255.863 174.591 257.56C175.475 261.018 176.753 265.977 178.317 272.097C181.426 284.41 185.715 301.395 190.468 320.186L190.477 320.221V320.257C190.468 320.418 190.459 320.606 190.459 320.784C189.664 340.254 188.94 357.891 188.413 370.677C188.127 377.039 187.904 382.203 187.743 385.795C187.654 387.564 187.582 388.94 187.538 389.905C187.511 390.361 187.484 390.71 187.475 390.978C187.448 391.21 187.43 391.335 187.421 391.335Z" fill="#455A64"/>
<path d="M180.586 318.658C180.604 318.783 178.531 319.247 175.958 319.685C174.028 320.016 172.366 320.239 171.642 320.284V320.105C171.883 320.168 172.017 320.221 172.008 320.257C172 320.293 171.866 320.302 171.615 320.293L171.07 320.266L171.606 320.105C172.303 319.9 173.947 319.56 175.877 319.23C178.46 318.783 180.568 318.533 180.586 318.658Z" fill="#455A64"/>
<path d="M180.193 321.222C180.175 321.347 178.316 321.204 176.02 321.034C173.724 320.856 171.865 320.704 171.865 320.579C171.865 320.454 173.742 320.391 176.056 320.57C178.361 320.749 180.202 321.097 180.193 321.222Z" fill="#455A64"/>
<path opacity="0.2" d="M136.582 253.665C137.538 255.014 138.905 255.487 140.496 255.746C142.086 256.006 143.703 255.836 145.303 255.657C155.533 254.522 166.362 253.477 176.379 251.038C163.414 251.761 149.725 251.52 136.761 252.244C136.761 252.244 136.654 253.137 136.627 253.352" fill="black"/>
<g opacity="0.2">
<path d="M149.939 271.937L157.248 300.296L156.739 273.134L149.939 271.937Z" fill="black"/>
</g>
</svg>
